<?xml version="1.0" standalone="no"?>
<!DOCTYPE svg PUBLIC "-//W3C//DTD SVG 20010904//EN"
 "http://www.w3.org/TR/2001/REC-SVG-20010904/DTD/svg10.dtd">
<svg version="1.0" xmlns="http://www.w3.org/2000/svg"
 width="700.000000pt" height="700.000000pt" viewBox="0 0 700.000000 700.000000"
 preserveAspectRatio="xMidYMid meet">
<metadata>
Created by potrace 1.11, written by Peter Selinger 2001-2013
</metadata>
<g transform="translate(0.000000,700.000000) scale(0.100000,-0.100000)"
fill="#000000" stroke="none">
<path d="M2368 6303 c-2 -5 -4 -225 -3 -490 0 -266 -2 -484 -5 -484 -3 -1
-154 -2 -337 -3 -182 -1 -335 -5 -340 -9 -4 -5 -8 -160 -8 -345 l0 -337 -490
0 -490 -1 -3 -1134 -2 -1135 490 0 c269 1 491 -2 491 -5 1 -3 2 -154 3 -337 1
-182 5 -335 9 -340 5 -4 157 -8 340 -9 183 -1 334 -2 337 -3 3 0 6 -220 6
-489 l0 -487 1134 0 1134 0 1 490 0 490 343 0 c188 0 342 2 343 5 0 3 2 158 2
345 l2 340 490 0 490 1 0 1134 0 1134 -490 1 -490 0 0 340 c0 187 -3 342 -7
345 -3 3 -154 5 -335 4 -180 0 -333 1 -338 3 -8 2 -11 159 -11 491 l0 487
-1131 3 c-623 1 -1133 -1 -1135 -5z m1573 -695 c1 -18 1 -249 0 -268 -1 -13
-56 -15 -441 -16 -390 0 -440 2 -441 16 -1 24 -1 233 0 258 l1 22 440 0 c345
0 440 -3 441 -12z m679 -977 c13 -1 15 -133 13 -1128 0 -621 -2 -1130 -2
-1133 -1 -7 -2245 -5 -2256 2 -6 4 -9 426 -8 1125 0 615 2 1123 2 1128 1 7
380 9 1119 8 614 0 1124 -1 1132 -2z m-2949 -691 c1 -3 2 -202 3 -442 2 -434
1 -438 -19 -439 -11 0 -77 -1 -147 -2 l-128 -2 0 442 c0 405 1 442 17 445 27
5 273 3 274 -2z m3922 1 l27 -1 0 -440 c0 -412 -1 -440 -17 -441 -10 0 -77 -1
-148 -2 l-131 -2 2 445 c1 245 2 445 3 445 23 0 244 -3 264 -4z m-1653 -2270
c4 -1 5 -118 1 -258 l-1 -33 -440 0 c-345 0 -440 3 -441 13 -4 78 -3 264 3
272 4 7 153 10 440 9 238 -1 435 -2 438 -3z"/>
</g>
</svg>
